<svg width="118" height="115" viewBox="0 0 118 115" fill="none" xmlns="http://www.w3.org/2000/svg">
<path d="M59 0C26.4123 0 0 25.7456 0 57.5C0 89.2544 26.4123 115 59 115C91.5877 115 118 89.2544 118 57.5C118 25.7456 91.5877 0 59 0ZM107.601 54.8215C94.9408 52.7994 83.2982 52.6892 72.6782 54.4717C71.4785 51.774 70.2346 49.081 68.9071 46.4217C80.2646 41.63 89.385 35.1229 96.1847 26.8621C102.822 34.5 106.987 44.2031 107.601 54.8215ZM88.7114 19.9285C82.7868 27.3748 74.6104 33.2637 64.1969 37.5619C59.2016 28.6446 53.4884 19.9477 47.0476 11.5048C50.8777 10.5608 54.87 10.0002 59 10.0002C70.1854 10.0002 80.476 13.7329 88.7114 19.9285ZM37.0077 15.1704C43.5518 23.5175 49.3535 32.1233 54.398 40.9544C42.4505 44.3804 28.1873 46.139 11.7017 46.2492C15.104 32.6648 24.4899 21.366 37.0077 15.1704ZM10.2611 57.5L10.325 56.2733C29.2492 56.2494 45.5726 54.1267 59.2458 49.9387C60.3914 52.2148 61.4878 54.5004 62.54 56.8004C45.9217 61.8652 32.2287 72.2392 21.5497 87.8504C14.5091 79.6135 10.2611 69.0335 10.2611 57.5ZM29.087 94.9229C38.7679 80.1262 51.1235 70.495 66.4438 66.0435C71.0065 77.6394 74.3548 89.5706 76.4886 101.789C60.0227 107.975 42.303 104.981 29.087 94.9229ZM86.0515 96.9833C83.898 85.7085 80.7415 74.6877 76.6115 63.9352C85.8352 62.6654 95.9832 62.996 107.09 64.8744C104.941 78.224 97.1189 89.7527 86.0515 96.9833Z" fill="black"/>
</svg>
