<svg width="255" height="69" viewBox="0 0 255 69" fill="none" xmlns="http://www.w3.org/2000/svg">
<g filter="url(#filter0_d)">
<path d="M54.0922 20.3061L54.7811 20.4242C55.0038 20.3999 55.2568 20.2114 55.5403 19.8586C55.8202 19.474 56.0716 19.2696 56.2943 19.2453C56.5487 19.2175 56.9143 19.3226 57.3908 19.5603C57.8639 19.7663 58.1126 19.9806 58.1369 20.2033C58.1924 20.7123 57.2133 22.5089 55.1996 25.5933C53.1825 28.6458 50.9652 31.9293 48.5477 35.444C46.1303 38.9586 43.939 42.4807 41.9739 46.0104C40.0053 49.5083 39.0903 51.8935 39.229 53.1659C39.4648 55.3291 39.8041 56.966 40.247 58.0765L40.4422 58.5381C40.4665 58.7608 40.2082 58.9016 39.6674 58.9606C39.1266 59.0195 38.692 59.0186 38.3634 58.9578C38.0702 58.9254 37.7029 58.8045 37.2616 58.5951C36.4427 58.1693 35.7545 56.8762 35.1972 54.7159C35.0828 53.6661 35.0725 52.6855 35.1663 51.7739C35.2566 50.8306 35.5823 49.6846 36.1435 48.3358C36.7365 46.9836 37.3115 45.7621 37.8686 44.6713C38.4575 43.5771 39.4982 41.9025 40.9907 39.6475C42.9546 36.6973 45.1664 33.5109 47.626 30.0883C50.0822 26.6338 51.4219 24.7496 51.6452 24.4355C51.8969 24.0862 52.0192 23.8798 52.0123 23.8161C52.0054 23.7525 51.1837 24.6307 49.5472 26.4507C47.9391 28.2355 45.1495 31.4365 41.1784 36.054C37.2392 40.668 34.8122 43.6525 33.8977 45.0075C30.2504 50.2335 28.0276 53.6142 27.2293 55.1498C27.1153 55.5806 26.8515 55.8186 26.438 55.8637C26.0563 55.9053 25.6769 55.673 25.2998 55.1669C24.6585 54.3033 24.2615 53.1717 24.109 51.7719C24.4921 49.3804 25.4138 46.3185 26.874 42.5863C28.3308 38.8223 30.0012 35.0994 31.8854 31.4176L33.8109 28.2624C33.9954 27.8882 34.0825 27.6534 34.0721 27.5579L34.0192 27.5154C33.9874 27.5189 32.9048 28.9566 30.7714 31.8287C28.638 34.7007 27.3764 36.4155 26.9865 36.9731L17.9919 49.2519C14.4338 54.114 11.8142 57.1034 10.1333 58.2201C7.15854 59.5744 5.35997 60.3498 4.73761 60.5464C4.38768 60.5846 4.20578 60.54 4.19191 60.4128C4.17804 60.2855 4.31457 60.0614 4.60148 59.7404C8.72938 54.4943 11.3194 51.2345 12.3716 49.961C12.6088 49.7742 14.4758 47.5589 17.9725 43.315C21.4659 39.0394 25.2157 34.607 29.2221 30.0179C33.2602 25.4253 36.1623 22.5178 37.9282 21.2953C39.1273 20.7783 40.029 20.4869 40.6335 20.421C41.2697 20.3517 41.6069 20.492 41.645 20.8419C41.6693 21.0646 41.5539 21.3347 41.2988 21.6522C37.2441 29.047 34.902 33.6961 34.2726 35.5995L31.9599 41.4043C31.8887 41.6374 31.8583 41.8016 31.8687 41.8971C31.8895 42.0879 31.9283 42.1481 31.985 42.0775C34.2762 39.7677 37.2566 36.5458 40.9263 32.4119C44.6279 28.2745 47.4701 25.2608 49.453 23.3708C51.4324 21.449 52.9788 20.4275 54.0922 20.3061ZM60.094 27.0878C60.4121 27.0531 60.6258 27.0942 60.7351 27.211C61.2394 27.7033 61.5106 28.1244 61.5488 28.4743C61.5834 28.7924 61.5192 29.0891 61.3561 29.3644C61.1895 29.6079 60.9803 29.9043 60.7287 30.2536C60.5054 30.5677 60.0097 31.0402 59.2415 31.6711C58.5017 32.2668 57.7501 32.6062 56.9866 32.6894C56.4036 32.6564 56.0791 32.3377 56.0133 31.7332C55.9092 30.7789 56.3813 29.7939 57.4295 28.7784C58.4741 27.7311 59.3623 27.1675 60.094 27.0878ZM50.6908 47.1366C50.4849 47.6097 50.401 48.0212 50.4391 48.3711C50.4773 48.7211 50.6872 48.8752 51.0689 48.8336C51.2916 48.8093 51.663 48.6723 52.1829 48.4225C57.7919 44.6566 63.213 40.3479 68.4462 35.4963C68.7567 35.6878 68.9294 35.9426 68.964 36.2607C68.9987 36.5788 68.8726 36.8984 68.5857 37.2194C68.2988 37.5403 67.8826 38.0042 67.3371 38.6108C66.8234 39.214 65.8158 40.3056 64.3141 41.8856C62.8125 43.4656 61.4083 44.9063 60.1016 46.2075C56.6772 49.6387 54.1037 51.7218 52.3812 52.4568C51.8259 52.6782 51.2143 52.8254 50.5462 52.8982C48.0967 53.1651 46.7298 51.9944 46.4455 49.3858C46.3346 48.3678 46.7335 46.8597 47.6424 44.8615C48.5478 42.8314 49.511 41.0365 50.532 39.4767C51.5495 37.8851 52.2405 36.989 52.6049 36.7883C53.1394 36.376 53.7406 36.1334 54.4087 36.0606C55.0767 35.9878 55.7268 36.0457 56.359 36.2343C56.5602 36.3089 56.6695 36.4258 56.6869 36.5848C56.7042 36.7439 56.5712 36.9998 56.2877 37.3526C56.0361 37.7019 55.6286 38.2453 55.0651 38.9826C54.5335 39.7166 53.7375 40.9782 52.6772 42.7677C51.6452 44.5218 50.983 45.9781 50.6908 47.1366ZM78.6597 34.0452C78.7527 35.1939 78.16 36.4012 76.8817 37.6671C75.6351 38.9296 74.0257 39.6684 72.0534 39.8833C71.2262 39.9735 70.7867 39.78 70.7347 39.3028C70.7139 39.1119 70.8414 38.9532 71.1173 38.8265C72.9047 37.5051 74.0147 36.4667 74.4474 35.7114C74.4972 35.5772 74.5134 35.4306 74.4961 35.2715C74.4787 35.1125 74.3905 35.0416 74.2315 35.0589C71.5691 35.7354 69.1536 37.4955 66.9849 40.3392C64.8162 43.1829 63.8099 45.3205 63.9659 46.752C64.0388 47.4201 64.3296 47.7263 64.8386 47.6709C67.1927 47.4143 69.5995 46.4599 72.0589 44.8077C74.5184 43.1555 78.1255 40.2194 82.8803 35.9994C83.2025 35.7068 83.6858 35.2678 84.3301 34.6826C85.0063 34.0938 85.4028 33.7448 85.5197 33.6355C85.8303 33.827 86.0029 34.0818 86.0376 34.3999C86.0722 34.718 85.9603 35.0199 85.7017 35.3056C84.2845 37.0696 82.4109 39.0764 80.0809 41.3261C77.7828 43.5723 75.0925 45.7647 72.01 47.9032C68.9241 50.01 66.3473 51.176 64.2795 51.4014C61.83 51.6684 60.4631 50.4976 60.1788 47.889C59.9812 46.0758 60.3932 44.2443 61.4148 42.3948C62.433 40.5134 63.7527 38.8888 65.3741 37.5211C66.9954 36.1534 68.7223 35.0156 70.5548 34.1077C72.3837 33.168 73.8708 32.6357 75.016 32.5109C76.193 32.3826 77.0534 32.4498 77.597 32.7125C78.1407 32.9751 78.4458 33.2638 78.5123 33.5784L78.6597 34.0452ZM89.5844 43.5253C89.6017 43.6844 89.674 43.757 89.8013 43.7431C89.9285 43.7292 90.1726 43.6061 90.5336 43.3736C94.9961 40.3121 99.844 36.3555 105.077 31.504C105.388 31.6954 105.56 31.9502 105.595 32.2684C105.63 32.5865 105.504 32.906 105.217 33.227C104.93 33.548 104.514 34.0118 103.968 34.6185C103.454 35.2217 102.447 36.3133 100.945 37.8933C99.4434 39.4733 98.0392 40.9139 96.7325 42.2151C93.3081 45.6464 90.7347 47.7294 89.0122 48.4644C88.4569 48.6859 87.8452 48.833 87.1772 48.9058C86.0956 49.0237 85.4629 48.2396 85.2792 46.5536C85.2168 45.981 85.4644 45.0044 86.0221 43.6239C86.5763 42.2115 86.8205 41.2031 86.7547 40.5987C86.7477 40.5351 86.6965 40.5085 86.6011 40.5189C86.5057 40.5293 86.2827 40.6984 85.9321 41.0263C81.8848 44.9439 79.4567 47.6228 78.648 49.0629C78.4883 49.37 78.2494 49.5408 77.9313 49.5755C77.2315 49.6518 76.7497 49.3663 76.486 48.7191C76.382 47.7647 77.4546 45.2014 79.7038 41.0292C81.9848 36.8534 84.7063 32.4366 87.8682 27.7786C91.0267 23.0888 93.6558 19.7442 95.7555 17.7449C96.3542 17.0359 97.8783 16.5479 100.328 16.2809C100.72 16.3348 100.928 16.473 100.952 16.6957C100.977 16.9184 100.89 17.1532 100.691 17.4001C92.4933 27.2423 87.3392 34.0005 85.2289 37.6748C85.1155 37.8159 84.9665 38.0736 84.782 38.4478C84.6258 38.7867 84.5529 39.0039 84.5633 39.0993L84.6162 39.1418C84.7435 39.1279 85.6693 38.3189 87.3936 36.7146C89.1145 35.0785 90.4032 33.908 91.2599 33.203C91.515 32.8855 92.1038 32.6765 93.0263 32.5759C93.832 32.5847 94.2574 32.7959 94.3025 33.2094C94.3163 33.3367 94.2967 33.4515 94.2434 33.5538C92.2534 37.1506 91.0701 39.4363 90.6935 40.4108C89.9021 42.01 89.5324 43.0482 89.5844 43.5253ZM106.013 43.9559L106.062 40.8604C106.051 40.7649 106.014 40.7207 105.951 40.7276C105.919 40.7311 105.846 40.8034 105.733 40.9445C105.368 41.4349 104.904 42.0488 104.34 42.7862C103.773 43.4918 102.771 44.4862 101.334 45.7695C99.9248 47.0175 98.7431 47.6935 97.7887 47.7976C97.6262 47.7831 97.4284 47.7403 97.1953 47.6691C96.9339 47.6332 96.588 47.4134 96.1577 47.0096C95.7275 46.6059 95.4672 45.9904 95.3771 45.1633C95.287 44.3362 95.7862 43.0103 96.875 41.1856C97.9284 39.3326 99.2415 37.4995 100.814 35.6864C102.384 33.8416 104.168 32.1985 106.168 30.7574C108.199 29.3128 110.01 28.5038 111.601 28.3305C112.209 28.2964 112.733 28.6738 113.173 29.4628C113.456 29.11 113.725 28.9198 113.98 28.892C114.234 28.8643 114.557 29.0222 114.949 29.3658C115.143 29.3768 115.346 29.4674 115.558 29.6374C115.766 29.7757 115.887 30.0039 115.922 30.322C115.957 30.6401 115.772 31.0143 115.368 31.4446C114.791 32.3445 114.113 33.3679 113.337 34.5147C112.561 35.6616 112.008 36.4944 111.678 37.0132C111.345 37.5002 111.003 38.0525 110.652 38.6702C110.059 39.7326 109.764 40.5695 109.766 41.1809C112.841 39.2685 117.581 35.3559 123.986 29.4431C124.297 29.6346 124.469 29.8894 124.504 30.2075C124.539 30.5256 124.441 30.8099 124.211 31.0603C123.981 31.3107 123.692 31.6158 123.345 31.9755C123.03 32.3317 122.381 33.0301 121.4 34.0705C120.419 35.1109 119.467 36.116 118.542 37.0859C117.646 38.0205 116.603 39.0838 115.413 40.2757C114.252 41.4323 113.202 42.432 112.264 43.2746C110.005 45.2912 108.573 46.3324 107.969 46.3983C107.365 46.4642 106.914 46.3201 106.618 45.9661C106.322 45.6121 106.12 44.942 106.013 43.9559ZM100.927 42.4822C101.309 42.4406 102.385 41.5347 104.156 39.7644C105.958 37.9907 107.649 36.2291 109.229 34.4796L111.646 31.8502C111.76 31.7091 111.815 31.6227 111.811 31.5908C111.804 31.5272 111.753 31.5006 111.658 31.511C110.449 31.6428 108.951 32.5142 107.163 34.1254C105.371 35.7048 103.845 37.3519 102.583 39.0667C101.35 40.7462 100.763 41.8564 100.821 42.3972C100.828 42.4608 100.864 42.4892 100.927 42.4822ZM129.552 28.8364C128.725 28.9266 127.419 29.938 125.634 31.8708C123.846 33.7718 122.972 34.9132 123.014 35.2949C123.021 35.3585 123.072 35.3851 123.167 35.3747C123.867 35.2985 125.166 34.3683 127.064 32.5841C128.994 30.7965 129.927 29.6164 129.865 29.0438C129.847 28.8848 129.743 28.8156 129.552 28.8364ZM121.053 45.2138C118.603 45.4807 117.216 44.1191 116.89 41.1288C116.685 39.2519 117.28 37.1752 118.673 34.8989C120.095 32.5872 121.847 30.642 123.928 29.0632C126.006 27.4526 127.903 26.5537 129.621 26.3664C130.385 26.2832 131.118 26.5092 131.82 27.0442C132.554 27.5759 132.952 28.128 133.014 28.7006C133.129 29.7504 132.511 31.0248 131.161 32.5238C129.808 33.991 128.35 35.2284 126.786 36.2357C125.25 37.2079 124.212 37.7234 123.671 37.7823C123.162 37.8378 122.754 37.6408 122.448 37.1914C122.31 37.1098 122.13 37.0812 121.907 37.1054C121.685 37.1297 121.366 37.599 120.95 38.5134C120.531 39.396 120.351 40.1077 120.41 40.6485C120.466 41.1575 120.691 41.4548 121.087 41.5404C123.505 41.2769 126.053 40.291 128.732 38.5827C131.407 36.8426 135.047 33.919 139.654 29.8117C139.976 29.5191 140.459 29.0802 141.103 28.4949C141.78 27.9062 142.176 27.5572 142.293 27.4479C142.604 27.6393 142.776 27.8941 142.811 28.2122C142.846 28.5304 142.734 28.8323 142.475 29.118C141.058 30.8819 139.184 32.8887 136.854 35.1384C134.556 37.3846 131.866 39.577 128.783 41.7156C125.697 43.8223 123.121 44.9884 121.053 45.2138ZM139.763 39.1187C140.813 39.0043 142.778 37.8405 145.659 35.6273C148.572 33.4106 151.199 31.2251 153.539 29.0709L157.098 25.8343C157.408 26.0258 157.581 26.2806 157.616 26.5987C157.65 26.9168 157.524 27.2364 157.237 27.5573C156.95 27.8783 156.534 28.3421 155.989 28.9488C155.475 29.552 154.467 30.6436 152.966 32.2236C151.464 33.8036 150.06 35.2442 148.753 36.5455C145.329 39.9767 142.755 42.0598 141.033 42.7947C140.477 43.0162 139.898 43.1599 139.293 43.2258C138.689 43.2916 138.206 43.2959 137.846 43.2386C137.486 43.1813 137.081 43.0162 136.633 42.7431C135.73 42.1334 135.146 40.6197 134.883 38.202C134.81 37.534 134.985 36.4848 135.409 35.0545C135.833 33.6242 136.591 31.8677 137.683 29.785C138.808 27.6989 140.139 25.5903 141.678 23.4591C143.248 21.3244 145.279 19.1394 147.771 16.9042C150.296 14.6656 153.035 12.7736 155.989 11.2285C156.449 11.0174 156.869 10.8911 157.251 10.8495C157.633 10.8079 158.002 10.9447 158.358 11.26C158.711 11.5434 158.97 11.8532 159.135 12.1892L159.426 12.6404C159.506 13.3721 158.551 15.1016 156.563 17.8291C154.522 20.6589 152.102 23.4173 149.305 26.1042C146.536 28.7558 143.937 31.0509 141.509 32.9894C139.53 34.6214 138.624 36.2009 138.791 37.7279C138.898 38.714 139.222 39.1776 139.763 39.1187ZM142.981 28.7731C143.776 28.6864 145.965 26.4683 149.547 22.1186C153.16 17.7654 154.943 15.3662 154.894 14.9208L154.836 14.8306L154.067 15.3007C152.53 16.5626 150.52 18.6486 148.037 21.5588C145.586 24.4655 143.915 26.7078 143.024 28.2855C142.915 28.4585 142.865 28.5926 142.875 28.6881C142.882 28.7517 142.917 28.78 142.981 28.7731ZM177.277 20.8828L182.039 19.8326L182.135 19.8222C182.962 19.7321 183.616 19.3872 184.098 18.7874C191.245 9.63922 196.024 4.16122 198.434 2.35343C198.668 2.13482 198.896 2.01338 199.118 1.98911C199.341 1.96484 199.523 2.0094 199.664 2.12277C200.419 2.55548 200.806 2.85137 200.823 3.01042C200.837 3.13767 200.801 3.25421 200.716 3.36005C193.301 12.4087 189.628 17.2512 189.697 17.8874C189.715 18.0465 189.851 18.1122 190.105 18.0844C192.017 17.9082 193.079 17.9051 193.291 18.0752C193.503 18.2453 193.803 18.3413 194.191 18.3633C194.7 18.3078 195.501 18.4138 196.592 18.6811C197.68 18.9166 198.257 19.3366 198.323 19.941C198.34 20.1001 198.273 20.2201 198.121 20.301C197.997 20.3467 197.387 20.5097 196.291 20.7902C195.195 21.0706 193.784 21.4175 192.059 21.8308C190.333 22.2442 188.953 22.5717 187.917 22.8134C186.913 23.0516 186.209 23.2409 185.806 23.3814C185.399 23.4901 185.105 23.7475 184.924 24.1535C180.939 30.7039 178.209 35.4918 176.736 38.5172C176.711 38.874 176.539 39.0698 176.221 39.1045C175.903 39.1392 175.536 38.8733 175.12 38.3071C174.736 37.7373 174.504 37.0866 174.424 36.3549C174.223 34.5099 175.754 30.9793 179.016 25.7631C179.218 25.548 179.312 25.3768 179.298 25.2495C179.291 25.1859 179.224 25.161 179.097 25.1749L178.858 25.2009L172.769 26.9268C172.324 26.9753 171.979 27.2061 171.734 27.619C168.134 33.8698 166.091 37.569 165.604 38.7165C165.551 39.1086 165.349 39.3237 164.999 39.3619C164.681 39.3966 164.257 39.2013 163.728 38.7761C163.195 38.3192 162.894 37.7726 162.825 37.1363C162.755 36.5001 163.042 35.2939 163.686 33.5177C164.358 31.7063 165.094 30.1936 165.895 28.9796C166.03 28.7396 166.09 28.556 166.077 28.4288C166.063 28.3015 165.944 28.25 165.722 28.2743L163.469 28.4233C162.924 28.4504 162.093 28.0582 160.974 27.2466C159.884 26.3997 159.299 25.6105 159.22 24.8788C159.188 24.5925 159.332 24.432 159.65 24.3973C161.968 24.4022 163.525 24.3613 164.32 24.2746C165.147 24.1845 166.996 23.7254 169.868 22.8974C170.143 22.7708 170.491 22.4111 170.909 21.8183C179.427 10.7824 184.275 5.20026 185.452 5.07198C185.643 5.05118 185.899 5.18423 186.22 5.47114C186.573 5.75459 186.759 5.99175 186.78 6.18262C186.797 6.34167 186.749 6.49176 186.636 6.63288C180.891 14.4694 177.797 18.7177 177.354 19.3776C176.908 20.0056 176.697 20.431 176.721 20.6537C176.742 20.8446 176.927 20.9209 177.277 20.8828ZM198.605 33.8644L198.654 30.7688C198.644 30.6734 198.607 30.6292 198.543 30.6361C198.511 30.6396 198.439 30.7118 198.325 30.853C197.96 31.3434 197.496 31.9573 196.933 32.6947C196.366 33.4003 195.364 34.3947 193.926 35.678C192.517 36.926 191.335 37.602 190.381 37.706C190.219 37.6916 190.021 37.6487 189.788 37.5776C189.526 37.5417 189.18 37.3219 188.75 36.9181C188.32 36.5144 188.06 35.8989 187.969 35.0718C187.879 34.2447 188.379 32.9188 189.467 31.0941C190.521 29.2411 191.834 27.408 193.407 25.5949C194.976 23.75 196.76 22.107 198.76 20.6659C200.792 19.2213 202.603 18.4123 204.193 18.2389C204.801 18.2049 205.325 18.5823 205.765 19.3713C206.049 19.0185 206.317 18.8282 206.572 18.8005C206.826 18.7728 207.149 18.9307 207.541 19.2743C207.735 19.2853 207.938 19.3758 208.15 19.5459C208.358 19.6842 208.48 19.9124 208.514 20.2305C208.549 20.5486 208.364 20.9228 207.961 21.3531C207.383 22.253 206.706 23.2764 205.929 24.4232C205.153 25.5701 204.6 26.4029 204.27 26.9217C203.937 27.4087 203.595 27.961 203.244 28.5787C202.651 29.6411 202.356 30.478 202.359 31.0894C205.434 29.1769 210.174 25.2643 216.579 19.3516C216.889 19.543 217.062 19.7978 217.096 20.116C217.131 20.4341 217.033 20.7183 216.803 20.9688C216.573 21.2192 216.284 21.5242 215.937 21.884C215.622 22.2402 214.974 22.9386 213.993 23.979C213.012 25.0194 212.059 26.0245 211.135 26.9944C210.239 27.929 209.196 28.9922 208.006 30.1842C206.844 31.3408 205.794 32.3405 204.856 33.1831C202.597 35.1997 201.166 36.2409 200.561 36.3068C199.957 36.3727 199.507 36.2286 199.211 35.8746C198.914 35.5206 198.713 34.8505 198.605 33.8644ZM193.52 32.3907C193.901 32.3491 194.978 31.4432 196.748 29.6729C198.551 27.8992 200.242 26.1376 201.821 24.3881L204.239 21.7587C204.352 21.6176 204.407 21.5311 204.404 21.4993C204.397 21.4357 204.346 21.4091 204.25 21.4195C203.041 21.5512 201.543 22.4227 199.755 24.0339C197.963 25.6133 196.437 27.2604 195.175 28.9752C193.942 30.6547 193.355 31.7649 193.414 32.3057C193.421 32.3693 193.456 32.3976 193.52 32.3907ZM214.974 30.9215C216.024 30.8071 217.989 29.6433 220.87 27.4301C223.783 25.2135 226.41 23.028 228.75 20.8738L232.309 17.6372C232.619 17.8286 232.792 18.0834 232.826 18.4016C232.861 18.7197 232.735 19.0392 232.448 19.3602C232.161 19.6812 231.745 20.145 231.199 20.7517C230.686 21.3549 229.678 22.4465 228.177 24.0265C226.675 25.6065 225.271 27.0471 223.964 28.3483C220.54 31.7796 217.966 33.8627 216.244 34.5976C215.688 34.8191 215.108 34.9627 214.504 35.0286C213.9 35.0945 213.417 35.0988 213.057 35.0415C212.697 34.9842 212.292 34.819 211.844 34.546C210.941 33.9363 210.357 32.4226 210.094 30.0049C210.021 29.3368 210.196 28.2877 210.62 26.8574C211.043 25.427 211.802 23.6706 212.894 21.5879C214.019 19.5018 215.35 17.3931 216.888 15.2619C218.458 13.1272 220.49 10.9423 222.982 8.70709C225.506 6.46841 228.246 4.5765 231.2 3.03134C231.659 2.82028 232.08 2.69395 232.462 2.65234C232.844 2.61073 233.213 2.74756 233.569 3.06282C233.922 3.34626 234.181 3.65602 234.346 3.99207L234.637 4.44325C234.717 5.17491 233.762 6.90448 231.774 9.63195C229.733 12.4618 227.313 15.2202 224.516 17.9071C221.747 20.5587 219.148 22.8538 216.72 24.7923C214.741 26.4243 213.835 28.0038 214.001 29.5307C214.109 30.5169 214.433 30.9805 214.974 30.9215ZM218.192 20.576C218.987 20.4893 221.176 18.2711 224.758 13.9214C228.371 9.56828 230.154 7.16902 230.105 6.72366L230.047 6.63342L229.277 7.10357C227.741 8.36546 225.731 10.4515 223.248 13.3617C220.797 16.2684 219.126 18.5106 218.235 20.0884C218.125 20.2613 218.076 20.3955 218.086 20.4909C218.093 20.5546 218.128 20.5829 218.192 20.576ZM230.678 29.21C231.728 29.0956 233.693 27.9318 236.574 25.7186C239.487 23.5019 242.114 21.3165 244.454 19.1622L248.012 15.9256C248.323 16.1171 248.496 16.3719 248.53 16.69C248.565 17.0081 248.439 17.3277 248.152 17.6487C247.865 17.9696 247.449 18.4335 246.903 19.0401C246.39 19.6433 245.382 20.7349 243.88 22.3149C242.379 23.8949 240.975 25.3356 239.668 26.6368C236.243 30.068 233.67 32.1511 231.947 32.8861C231.392 33.1075 230.812 33.2512 230.208 33.3171C229.604 33.3829 229.121 33.3872 228.761 33.3299C228.401 33.2726 227.996 33.1075 227.548 32.8344C226.645 32.2247 226.061 30.711 225.798 28.2933C225.725 27.6253 225.9 26.5761 226.324 25.1458C226.747 23.7155 227.505 21.959 228.598 19.8764C229.723 17.7902 231.054 15.6816 232.592 13.5504C234.162 11.4157 236.194 9.23076 238.686 6.99555C241.21 4.75687 243.949 2.86495 246.903 1.3198C247.363 1.10873 247.784 0.982399 248.166 0.940794C248.548 0.899189 248.917 1.03602 249.273 1.35127C249.626 1.63472 249.885 1.94447 250.05 2.28053L250.341 2.7317C250.42 3.46337 249.466 5.19294 247.478 7.92041C245.437 10.7502 243.017 13.5086 240.22 16.1955C237.451 18.8471 234.852 21.1422 232.424 23.0807C230.445 24.7127 229.539 26.2922 229.705 27.8192C229.813 28.8053 230.137 29.2689 230.678 29.21ZM233.896 18.8644C234.691 18.7778 236.88 16.5596 240.461 12.2099C244.075 7.85673 245.858 5.45747 245.809 5.01211L245.751 4.92188L244.981 5.39203C243.445 6.65391 241.435 8.73995 238.952 11.6501C236.5 14.5569 234.829 16.7991 233.939 18.3769C233.829 18.5498 233.78 18.684 233.79 18.7794C233.797 18.843 233.832 18.8714 233.896 18.8644Z" fill="white"/>
</g>
<defs>
<filter id="filter0_d" x="0.191406" y="0.933594" width="254.154" height="67.6261" filterUnits="userSpaceOnUse" color-interpolation-filters="sRGB">
<feFlood flood-opacity="0" result="BackgroundImageFix"/>
<feColorMatrix in="SourceAlpha" type="matrix" values="0 0 0 0 0 0 0 0 0 0 0 0 0 0 0 0 0 0 127 0"/>
<feOffset dy="4"/>
<feGaussianBlur stdDeviation="2"/>
<feColorMatrix type="matrix" values="0 0 0 0 0 0 0 0 0 0 0 0 0 0 0 0 0 0 0.25 0"/>
<feBlend mode="normal" in2="BackgroundImageFix" result="effect1_dropShadow"/>
<feBlend mode="normal" in="SourceGraphic" in2="effect1_dropShadow" result="shape"/>
</filter>
</defs>
</svg>
