<svg width="260" height="52" viewBox="0 0 260 52" fill="none" xmlns="http://www.w3.org/2000/svg">
<g filter="url(#filter0_d)">
<path d="M58.0047 6.44414L58.6812 6.61973C58.9051 6.61428 59.1732 6.4477 59.4853 6.12001C59.7966 5.76033 60.0643 5.57776 60.2882 5.57231C60.5441 5.56608 60.8995 5.70147 61.3544 5.97849C61.8085 6.22351 62.0383 6.45799 62.0437 6.68192C62.0562 7.19377 60.9294 8.90169 58.6634 11.8057C56.3966 14.6777 53.911 17.7631 51.2064 21.0619C48.5019 24.3607 46.0221 27.686 43.767 31.0379C41.5111 34.3578 40.3988 36.6575 40.4299 37.9371C40.4829 40.1125 40.6833 41.7721 41.0312 42.916L41.1869 43.3923C41.1923 43.6163 40.9231 43.7349 40.3793 43.7481C39.8355 43.7613 39.4024 43.7239 39.0802 43.6357C38.7907 43.5787 38.4349 43.4273 38.0128 43.1815C37.2326 42.6884 36.6556 41.342 36.282 39.1424C36.2563 38.0867 36.3285 37.1087 36.4987 36.2083C36.668 35.2759 37.089 34.1613 37.7617 32.8646C38.4663 31.567 39.1421 30.3982 39.7889 29.3582C40.4678 28.3174 41.6457 26.7362 43.3226 24.6148C45.5277 21.8403 47.9997 18.8513 50.7385 15.6477C53.4766 12.4121 54.9701 10.6472 55.219 10.3531C55.4992 10.0262 55.6384 9.83072 55.6369 9.76674C55.6353 9.70276 54.7427 10.5087 52.9589 12.1846C51.2064 13.8278 48.1574 16.7828 43.812 21.0498C39.4985 25.3161 36.8291 28.0858 35.8038 29.3592C31.7298 34.2598 29.2305 37.4415 28.3058 38.9045C28.156 39.3242 27.8732 39.5392 27.4573 39.5493C27.0734 39.5586 26.7149 39.2953 26.3817 38.7592C25.8153 37.8448 25.515 36.6837 25.4807 35.2761C26.0637 32.9253 27.2397 29.9518 29.0087 26.3556C30.7769 22.7275 32.7547 19.1584 34.9419 15.6481L37.126 12.6661C37.3413 12.3087 37.4478 12.0821 37.4455 11.9861L37.3964 11.9393C37.3644 11.94 36.1647 13.2816 33.7972 15.964C31.4298 18.6464 30.0284 20.249 29.593 20.7718L19.5973 32.2504C15.6428 36.796 12.7811 39.5544 11.0122 40.5258C7.93402 41.625 6.07659 42.2464 5.43989 42.3899C5.088 42.3985 4.91049 42.3388 4.90738 42.2108C4.90426 42.0829 5.05915 41.871 5.37205 41.5753C9.92664 36.6951 12.7817 33.6647 13.9374 32.4842C14.1894 32.318 16.2361 30.2676 20.0775 26.333C23.9181 22.3663 28.0275 18.2651 32.4057 14.0293C36.8159 9.79275 39.9523 7.13964 41.8148 6.07C43.0531 5.65574 43.9762 5.44122 44.584 5.42642C45.2238 5.41085 45.548 5.57901 45.5566 5.93091C45.562 6.15484 45.4243 6.41427 45.1434 6.70919C40.481 13.7367 37.7561 18.1724 36.9688 20.0161L34.176 25.6057C34.0854 25.8319 34.0414 25.9931 34.0437 26.089C34.0484 26.281 34.0819 26.3442 34.1443 26.2786C36.6217 24.1697 39.8627 21.21 43.8671 17.3994C47.9036 13.5881 50.9892 10.8242 53.1241 9.10769C55.2582 7.35924 56.8851 6.47139 58.0047 6.44414ZM63.4147 13.7066C63.7346 13.6989 63.9441 13.7578 64.0432 13.8834C64.5043 14.4163 64.7391 14.8587 64.7477 15.2106C64.7555 15.5306 64.6665 15.8208 64.4808 16.0814C64.2943 16.31 64.061 16.5878 63.7809 16.9147C63.532 17.2088 62.9982 17.6379 62.1797 18.202C61.3924 18.7333 60.6149 19.0083 59.8471 19.027C59.2689 18.9451 58.9725 18.6002 58.9577 17.9924C58.9343 17.0327 59.4875 16.0909 60.6174 15.1671C61.7465 14.2114 62.6789 13.7245 63.4147 13.7066ZM52.3583 32.8934C52.1133 33.3475 51.9951 33.7505 52.0036 34.1024C52.0122 34.4543 52.2084 34.6255 52.5923 34.6162C52.8162 34.6107 53.1978 34.5054 53.737 34.3002C59.6429 31.0196 65.4072 27.1821 71.0299 22.788C71.3233 23.0049 71.4739 23.2734 71.4817 23.5933C71.4895 23.9132 71.3369 24.221 71.024 24.5167C70.7111 24.8124 70.2574 25.2395 69.6628 25.7982C69.1002 26.356 68.0043 27.359 66.375 28.8071C64.7458 30.2551 63.2254 31.5725 61.8139 32.7592C58.113 35.8902 55.3734 37.7494 53.5952 38.3369C53.0232 38.5109 52.4013 38.606 51.7295 38.6224C49.2663 38.6823 48.0027 37.4007 47.9389 34.7775C47.9139 33.7538 48.4383 32.2846 49.5121 30.3699C50.585 28.4232 51.6958 26.7157 52.8444 25.2473C53.9922 23.7469 54.7561 22.9121 55.1361 22.7428C55.7034 22.3769 56.3229 22.1857 56.9947 22.1694C57.6665 22.153 58.3095 22.2654 58.9235 22.5065C59.1178 22.5978 59.2169 22.7235 59.2208 22.8834C59.2247 23.0434 59.0705 23.2872 58.7584 23.6149C58.4783 23.9418 58.0265 24.4489 57.403 25.1363C56.8116 25.8229 55.9123 27.0131 54.7051 28.707C53.5292 30.3681 52.7469 31.7636 52.3583 32.8934ZM81.3293 22.2012C81.3254 23.3536 80.6332 24.5068 79.2529 25.6608C77.9046 26.8139 76.2387 27.4146 74.2553 27.4629C73.4235 27.4832 73.0018 27.2534 72.9901 26.7735C72.9855 26.5816 73.1259 26.4341 73.4115 26.3311C75.3037 25.1647 76.4971 24.2234 76.9918 23.5071C77.0527 23.3776 77.0812 23.2329 77.0773 23.0729C77.0734 22.913 76.9915 22.835 76.8315 22.8389C74.1217 23.2889 71.5666 24.8396 69.1665 27.4908C66.7663 30.1419 65.5837 32.1873 65.6187 33.6269C65.6351 34.2987 65.8992 34.6284 66.411 34.6159C68.7783 34.5583 71.2568 33.8098 73.8466 32.3703C76.4363 30.9309 80.2776 28.3086 85.3706 24.5036C85.7162 24.2391 86.2347 23.8423 86.9261 23.3133C87.6494 22.7836 88.0739 22.4692 88.1995 22.3701C88.4928 22.587 88.6434 22.8554 88.6512 23.1753C88.659 23.4952 88.522 23.7866 88.2404 24.0496C86.6798 25.688 84.644 27.5301 82.133 29.5758C79.6541 31.6208 76.7889 33.5791 73.5374 35.4507C70.2853 37.2904 67.6195 38.2356 65.5401 38.2862C63.0768 38.3462 61.8132 37.0645 61.7494 34.4413C61.705 32.6178 62.2696 30.8276 63.4432 29.0705C64.616 27.2814 66.0677 25.7737 67.7984 24.5472C69.5291 23.3207 71.3456 22.3322 73.2479 21.5817C75.1494 20.7992 76.676 20.3939 77.8276 20.3659C79.0113 20.3371 79.8629 20.4764 80.3826 20.7838C80.9022 21.0913 81.1819 21.4046 81.2217 21.7237L81.3293 22.2012ZM91.4178 32.5668C91.4217 32.7267 91.4876 32.8052 91.6156 32.802C91.7436 32.7989 91.9971 32.6967 92.3764 32.4954C97.0807 29.8202 102.244 26.2855 107.867 21.8913C108.16 22.1083 108.311 22.3767 108.319 22.6966C108.326 23.0165 108.174 23.3243 107.861 23.62C107.548 23.9157 107.094 24.3429 106.5 24.9015C105.937 25.4594 104.841 26.4623 103.212 27.9104C101.583 29.3585 100.062 30.6759 98.6508 31.8626C94.9499 34.9935 92.2103 36.8528 90.4321 37.4402C89.8602 37.6142 89.2383 37.7093 88.5665 37.7257C87.4788 37.7522 86.9144 36.9177 86.8731 35.2222C86.8591 34.6463 87.188 33.694 87.8599 32.3653C88.5309 31.0046 88.8591 30.0203 88.8443 29.4125C88.8427 29.3485 88.794 29.3177 88.698 29.32C88.602 29.3223 88.3656 29.4721 87.9887 29.7694C83.6261 33.3326 80.9813 35.7977 80.0543 37.1647C79.8694 37.4573 79.617 37.6074 79.2971 37.6152C78.5933 37.6324 78.1372 37.3074 77.9289 36.6402C77.9056 35.6805 79.19 33.2165 81.7822 29.2483C84.4064 25.2792 87.4898 21.107 91.0324 16.7315C94.5741 12.324 97.4753 9.21246 99.7358 7.39691C100.392 6.74075 101.952 6.38269 104.415 6.32273C104.801 6.40935 104.997 6.56463 105.003 6.78857C105.008 7.0125 104.901 7.23916 104.683 7.46854C95.6862 16.5862 89.9818 22.8869 87.5699 26.3706C87.445 26.5017 87.2749 26.7459 87.0596 27.1032C86.8754 27.4278 86.7845 27.6381 86.7868 27.734L86.836 27.7809C86.964 27.7777 87.9545 27.0494 89.8077 25.5959C91.6601 24.1104 93.0428 23.0524 93.9557 22.422C94.2366 22.1271 94.8409 21.9683 95.7686 21.9458C96.5707 22.0223 96.9769 22.2685 96.987 22.6843C96.9901 22.8123 96.9608 22.925 96.8992 23.0226C94.6136 26.4392 93.2422 28.6172 92.785 29.5566C91.8619 31.0835 91.4061 32.0869 91.4178 32.5668ZM107.752 34.3778L108.061 31.2974C108.059 31.2014 108.025 31.1542 107.962 31.1558C107.93 31.1566 107.851 31.2225 107.726 31.3536C107.321 31.8116 106.807 32.3842 106.184 33.0716C105.559 33.727 104.477 34.6336 102.937 35.7914C101.428 36.9165 100.193 37.4907 99.2336 37.5141C99.0729 37.486 98.8794 37.4266 98.6531 37.3361C98.3957 37.2784 98.0695 37.0302 97.6747 36.5917C97.2799 36.1532 97.0724 35.5181 97.0522 34.6863C97.0319 33.8545 97.641 32.5753 98.8793 30.8487C100.085 29.0908 101.548 27.3747 103.267 25.7004C104.986 23.9941 106.903 22.507 109.016 21.2392C111.162 19.9706 113.035 19.3168 114.634 19.2779C115.243 19.2951 115.733 19.7153 116.106 20.5385C116.418 20.2108 116.702 20.0438 116.958 20.0376C117.214 20.0313 117.522 20.2159 117.883 20.5912C118.076 20.6185 118.271 20.7258 118.467 20.9131C118.663 21.0684 118.765 21.306 118.773 21.6259C118.781 21.9458 118.565 22.3031 118.127 22.6979C117.475 23.546 116.714 24.5088 115.844 25.5863C114.974 26.6638 114.353 27.4471 113.981 27.9363C113.608 28.3936 113.221 28.9151 112.819 29.5011C112.139 30.5099 111.775 31.319 111.725 31.9284C114.95 30.2815 120.003 26.7815 126.882 21.4285C127.176 21.6454 127.326 21.9138 127.334 22.2337C127.342 22.5536 127.221 22.8287 126.97 23.0588C126.72 23.289 126.406 23.5687 126.03 23.8979C125.686 24.2264 124.982 24.8677 123.916 25.8219C122.851 26.7761 121.817 27.6976 120.815 28.5862C119.843 29.4421 118.715 30.4139 117.429 31.5015C116.174 32.5563 115.044 33.4641 114.038 34.2248C111.618 36.0443 110.103 36.9614 109.496 36.9762C108.888 36.991 108.451 36.8095 108.186 36.4319C107.921 36.0542 107.776 35.3695 107.752 34.3778ZM102.808 32.4816C103.192 32.4722 104.341 31.66 106.254 30.045C108.199 28.4292 110.033 26.8161 111.754 25.2057L114.384 22.789C114.509 22.6579 114.571 22.5764 114.57 22.5444C114.568 22.4804 114.52 22.4496 114.424 22.4519C113.208 22.4815 111.642 23.2239 109.724 24.679C107.806 26.1021 106.147 27.6149 104.745 29.2175C103.375 30.7873 102.697 31.8441 102.71 32.3879C102.711 32.4519 102.744 32.4831 102.808 32.4816ZM132.48 21.2922C131.648 21.3125 130.262 22.2105 128.32 23.9862C126.378 25.73 125.412 26.7938 125.421 27.1777C125.423 27.2417 125.471 27.2725 125.567 27.2702C126.271 27.2531 127.644 26.4354 129.685 24.8173C131.758 23.1983 132.788 22.101 132.774 21.5251C132.77 21.3652 132.672 21.2875 132.48 21.2922ZM122.633 36.8965C120.169 36.9564 118.901 35.4828 118.828 32.4757C118.782 30.5883 119.549 28.569 121.129 26.4179C122.741 24.2341 124.65 22.4431 126.856 21.045C129.062 19.6149 131.029 18.8788 132.756 18.8368C133.524 18.8181 134.235 19.1049 134.89 19.6971C135.576 20.2886 135.927 20.8722 135.941 21.448C135.966 22.5037 135.244 23.7217 133.773 25.1019C132.301 26.4501 130.744 27.5603 129.101 28.4326C127.489 29.272 126.411 29.6984 125.867 29.7116C125.355 29.7241 124.965 29.4935 124.698 29.0199C124.567 28.927 124.39 28.8833 124.166 28.8888C123.942 28.8942 123.585 29.335 123.094 30.2113C122.603 31.0555 122.363 31.7495 122.377 32.2933C122.389 32.8052 122.589 33.1204 122.976 33.239C125.407 33.1798 128.029 32.4118 130.842 30.9349C133.654 29.426 137.528 26.819 142.463 23.1138C142.809 22.8493 143.327 22.4526 144.019 21.9236C144.742 21.3938 145.166 21.0794 145.292 20.9803C145.585 21.1973 145.736 21.4657 145.744 21.7856C145.752 22.1055 145.615 22.3969 145.333 22.6598C143.772 24.2983 141.737 26.1404 139.226 28.1861C136.747 30.231 133.881 32.1893 130.63 34.061C127.378 35.9007 124.712 36.8458 122.633 36.8965ZM141.789 32.397C142.845 32.3713 144.901 31.3769 147.958 29.414C151.048 27.4502 153.849 25.4935 156.362 23.5437L160.18 20.6179C160.473 20.8349 160.624 21.1033 160.632 21.4232C160.64 21.7431 160.487 22.0509 160.174 22.3466C159.861 22.6423 159.407 23.0695 158.813 23.6281C158.25 24.186 157.154 25.1889 155.525 26.637C153.896 28.0851 152.375 29.4025 150.964 30.5892C147.263 33.7202 144.523 35.5794 142.745 36.1668C142.173 36.3408 141.583 36.4352 140.976 36.45C140.368 36.4648 139.887 36.4285 139.533 36.341C139.178 36.2536 138.789 36.055 138.366 35.7453C137.517 35.0617 137.063 33.5043 137.004 31.073C136.987 30.4012 137.25 29.3705 137.793 27.9809C138.335 26.5913 139.238 24.9048 140.502 22.9215C141.798 20.9373 143.302 18.9482 145.014 16.9539C146.758 14.9589 148.966 12.9526 151.638 10.9349C154.342 8.91655 157.23 7.26177 160.304 5.97059C160.78 5.79896 161.21 5.70847 161.593 5.69913C161.977 5.68978 162.333 5.85717 162.662 6.20128C162.99 6.51339 163.222 6.84384 163.358 7.19262L163.61 7.66664C163.628 8.40242 162.531 10.0456 160.321 12.5961C158.049 15.2442 155.406 17.7893 152.392 20.2313C149.41 22.6406 146.628 24.7089 144.045 26.4363C141.936 27.8961 140.9 29.3937 140.937 30.9293C140.961 31.921 141.245 32.4102 141.789 32.397ZM145.866 22.3588C146.666 22.3393 149.033 20.3131 152.968 16.2801C156.935 12.2464 158.913 10.0056 158.903 9.55775L158.852 9.46295L158.046 9.86669C156.409 10.9949 154.231 12.9044 151.511 15.5954C148.824 18.2856 146.97 20.3793 145.95 21.8766C145.826 22.0397 145.766 22.1692 145.768 22.2651C145.769 22.3291 145.802 22.3603 145.866 22.3588ZM180.704 17.3815L185.538 16.7357L185.634 16.7334C186.466 16.7131 187.147 16.4245 187.677 15.8674C195.569 7.35285 200.791 2.29626 203.345 0.69764C203.596 0.499468 203.834 0.397656 204.058 0.392205C204.282 0.386754 204.459 0.446453 204.59 0.5713C205.306 1.06602 205.667 1.39335 205.67 1.5533C205.674 1.68127 205.628 1.7944 205.535 1.89271C197.384 10.2855 193.317 14.8018 193.333 15.4417C193.337 15.6016 193.467 15.6785 193.722 15.6722C195.643 15.6575 196.701 15.7438 196.898 15.931C197.094 16.1183 197.385 16.2393 197.771 16.2939C198.283 16.2814 199.071 16.4543 200.136 16.8125C201.2 17.1387 201.74 17.6057 201.755 18.2135C201.759 18.3735 201.681 18.4874 201.523 18.5553C201.396 18.5904 200.774 18.7015 199.659 18.8887C198.543 19.0759 197.108 19.3029 195.354 19.5697C193.6 19.8365 192.196 20.0467 191.144 20.2003C190.123 20.3532 189.406 20.4827 188.993 20.5888C188.578 20.6629 188.264 20.8946 188.049 21.2839C183.527 27.4758 180.404 32.0172 178.682 34.9079C178.627 35.2614 178.439 35.442 178.119 35.4498C177.799 35.4576 177.456 35.1618 177.089 34.5626C176.755 33.9626 176.578 33.2947 176.56 32.5589C176.515 30.7034 178.337 27.3141 182.027 22.3908C182.246 22.1934 182.354 22.0308 182.351 21.9028C182.349 21.8388 182.284 21.8084 182.156 21.8115L181.917 21.8173L175.704 23.0249C175.256 23.0358 174.893 23.2367 174.614 23.6276C170.501 29.5534 168.154 33.0676 167.573 34.1701C167.486 34.5563 167.267 34.7537 166.915 34.7622C166.595 34.77 166.189 34.5398 165.698 34.0717C165.206 33.5715 164.952 33.0015 164.936 32.3617C164.921 31.7219 165.308 30.5441 166.098 28.8284C166.92 27.0798 167.781 25.6345 168.682 24.4922C168.836 24.2644 168.912 24.0865 168.909 23.9585C168.906 23.8306 168.792 23.7693 168.568 23.7748L166.311 23.7337C165.766 23.7149 164.97 23.2541 163.924 22.3513C162.909 21.4158 162.393 20.5801 162.375 19.8443C162.368 19.5564 162.524 19.4085 162.844 19.4008C165.154 19.6006 166.708 19.6908 167.508 19.6713C168.34 19.6511 170.221 19.3492 173.152 18.7657C173.437 18.6628 173.813 18.3335 174.28 17.778C183.697 7.49779 188.997 2.34329 190.18 2.31447C190.372 2.3098 190.616 2.46391 190.912 2.77681C191.24 3.08893 191.406 3.34096 191.41 3.5329C191.414 3.69286 191.354 3.83837 191.229 3.96945C184.845 11.295 181.405 15.2679 180.908 15.8881C180.41 16.4764 180.164 16.8825 180.169 17.1065C180.174 17.2984 180.352 17.3901 180.704 17.3815ZM200.865 32.1113L201.174 29.0309C201.172 28.9349 201.139 28.8877 201.075 28.8892C201.043 28.89 200.964 28.9559 200.839 29.087C200.434 29.545 199.92 30.1177 199.297 30.8051C198.672 31.4605 197.59 32.3671 196.05 33.5249C194.541 34.6499 193.306 35.2242 192.347 35.2475C192.186 35.2194 191.992 35.1601 191.766 35.0696C191.509 35.0118 191.183 34.7637 190.788 34.3252C190.393 33.8867 190.185 33.2515 190.165 32.4198C190.145 31.588 190.754 30.3088 191.992 28.5822C193.198 26.8243 194.661 25.1082 196.38 23.4339C198.099 21.7275 200.016 20.2404 202.13 18.9726C204.275 17.704 206.148 17.0503 207.747 17.0113C208.356 17.0285 208.846 17.4487 209.219 18.2719C209.531 17.9442 209.815 17.7773 210.071 17.771C210.327 17.7648 210.635 17.9493 210.996 18.3247C211.189 18.352 211.384 18.4593 211.58 18.6466C211.776 18.8018 211.878 19.0394 211.886 19.3593C211.894 19.6792 211.678 20.0366 211.24 20.4314C210.588 21.2795 209.827 22.2423 208.957 23.3198C208.087 24.3973 207.466 25.1806 207.094 25.6698C206.721 26.127 206.334 26.6486 205.932 27.2346C205.252 28.2434 204.888 29.0525 204.838 29.6619C208.063 28.0149 213.116 24.5149 219.995 19.1619C220.289 19.3789 220.439 19.6473 220.447 19.9672C220.455 20.2871 220.334 20.5621 220.083 20.7923C219.833 21.0224 219.519 21.3021 219.143 21.6314C218.799 21.9599 218.095 22.6012 217.029 23.5554C215.964 24.5096 214.93 25.431 213.928 26.3197C212.956 27.1756 211.828 28.1473 210.542 29.235C209.287 30.2898 208.157 31.1976 207.151 31.9583C204.731 33.7777 203.216 34.6948 202.609 34.7096C202.001 34.7244 201.564 34.543 201.299 34.1653C201.034 33.7877 200.889 33.103 200.865 32.1113ZM195.921 30.215C196.305 30.2057 197.454 29.3935 199.367 27.7785C201.312 26.1626 203.146 24.5496 204.867 22.9392L207.497 20.5225C207.622 20.3914 207.684 20.3099 207.683 20.2779C207.681 20.2139 207.633 20.1831 207.537 20.1854C206.321 20.215 204.755 20.9573 202.837 22.4124C200.92 23.8355 199.26 25.3484 197.858 26.9509C196.488 28.5207 195.81 29.5776 195.823 30.1214C195.825 30.1854 195.857 30.2166 195.921 30.215ZM217.423 30.5559C218.479 30.5302 220.535 29.5359 223.592 27.5729C226.681 25.6091 229.483 23.6524 231.996 21.7027L235.814 18.7769C236.107 18.9938 236.258 19.2622 236.266 19.5821C236.273 19.902 236.121 20.2098 235.808 20.5055C235.495 20.8012 235.041 21.2284 234.447 21.787C233.884 22.3449 232.788 23.3479 231.159 24.7959C229.53 26.244 228.009 27.5614 226.598 28.7481C222.897 31.8791 220.157 33.7383 218.379 34.3258C217.807 34.4997 217.217 34.5941 216.609 34.6089C216.002 34.6237 215.521 34.5874 215.166 34.5C214.812 34.4126 214.423 34.214 214 33.9042C213.151 33.2207 212.697 31.6632 212.637 29.232C212.621 28.5602 212.884 27.5295 213.426 26.1398C213.969 24.7502 214.872 23.0638 216.136 21.0804C217.432 19.0963 218.936 17.1071 220.648 15.1128C222.392 13.1178 224.6 11.1115 227.272 9.09388C229.975 7.07549 232.864 5.42071 235.937 4.12953C236.413 3.9579 236.843 3.86741 237.227 3.85806C237.611 3.84872 237.967 4.0161 238.296 4.36021C238.623 4.67233 238.856 5.00278 238.992 5.35156L239.244 5.82558C239.262 6.56136 238.165 8.20452 235.955 10.7551C233.682 13.4032 231.04 15.9482 228.026 18.3903C225.044 20.7996 222.261 22.8679 219.679 24.5952C217.57 26.055 216.534 27.5527 216.571 29.0882C216.595 30.0799 216.879 30.5691 217.423 30.5559ZM221.5 20.5177C222.3 20.4982 224.667 18.472 228.602 14.4391C232.569 10.4054 234.547 8.16456 234.536 7.71669L234.486 7.62189L233.68 8.02563C232.043 9.1538 229.864 11.0634 227.145 13.7543C224.458 16.4445 222.604 18.5383 221.584 20.0355C221.46 20.1986 221.399 20.3281 221.402 20.4241C221.403 20.4881 221.436 20.5193 221.5 20.5177ZM233.215 30.1715C234.271 30.1458 236.327 29.1515 239.385 27.1885C242.474 25.2247 245.275 23.268 247.788 21.3182L251.606 18.3925C251.899 18.6094 252.05 18.8778 252.058 19.1977C252.066 19.5176 251.913 19.8254 251.6 20.1211C251.287 20.4168 250.834 20.844 250.239 21.4026C249.676 21.9605 248.58 22.9634 246.951 24.4115C245.322 25.8596 243.802 27.177 242.39 28.3637C238.689 31.4947 235.95 33.3539 234.171 33.9413C233.599 34.1153 233.009 34.2097 232.402 34.2245C231.794 34.2393 231.313 34.203 230.959 34.1156C230.604 34.0282 230.215 33.8296 229.792 33.5198C228.943 32.8362 228.489 31.2788 228.43 28.8476C228.413 28.1758 228.676 27.145 229.219 25.7554C229.761 24.3658 230.664 22.6793 231.928 20.696C233.224 18.7119 234.728 16.7227 236.44 14.7284C238.184 12.7334 240.392 10.7271 243.064 8.70947C245.768 6.69108 248.656 5.0363 251.73 3.74512C252.206 3.57349 252.636 3.483 253.019 3.47365C253.403 3.46431 253.76 3.63169 254.088 3.9758C254.416 4.28792 254.648 4.61837 254.784 4.96715L255.036 5.44117C255.054 6.17695 253.957 7.82011 251.747 10.3707C249.475 13.0187 246.832 15.5638 243.818 18.0059C240.836 20.4151 238.054 22.4835 235.471 24.2108C233.362 25.6706 232.326 27.1682 232.363 28.7038C232.387 29.6955 232.671 30.1847 233.215 30.1715ZM237.292 20.1333C238.092 20.1138 240.459 18.0876 244.394 14.0547C248.361 10.0209 250.339 7.78015 250.329 7.33228L250.278 7.23748L249.472 7.64122C247.835 8.76939 245.657 10.679 242.937 13.3699C240.25 16.0601 238.396 18.1538 237.376 19.6511C237.252 19.8142 237.192 19.9437 237.194 20.0397C237.195 20.1037 237.228 20.1349 237.292 20.1333Z" fill="#292D35"/>
</g>
<defs>
<filter id="filter0_d" x="0.907227" y="0.39209" width="258.129" height="51.3588" filterUnits="userSpaceOnUse" color-interpolation-filters="sRGB">
<feFlood flood-opacity="0" result="BackgroundImageFix"/>
<feColorMatrix in="SourceAlpha" type="matrix" values="0 0 0 0 0 0 0 0 0 0 0 0 0 0 0 0 0 0 127 0"/>
<feOffset dy="4"/>
<feGaussianBlur stdDeviation="2"/>
<feColorMatrix type="matrix" values="0 0 0 0 0 0 0 0 0 0 0 0 0 0 0 0 0 0 0.25 0"/>
<feBlend mode="normal" in2="BackgroundImageFix" result="effect1_dropShadow"/>
<feBlend mode="normal" in="SourceGraphic" in2="effect1_dropShadow" result="shape"/>
</filter>
</defs>
</svg>
