<svg width="260" height="48" viewBox="0 0 260 48" fill="none" xmlns="http://www.w3.org/2000/svg">
<g filter="url(#filter0_d)">
<path d="M58.1691 2.80796L58.8411 2.99996C59.0651 2.99996 59.3371 2.83996 59.6571 2.51996C59.9771 2.16796 60.2491 1.99196 60.4731 1.99196C60.7291 1.99196 61.0811 2.13596 61.5291 2.42396C61.9771 2.67996 62.2011 2.91996 62.2011 3.14396C62.2011 3.65596 61.0331 5.33596 58.6971 8.18396C56.3611 11 53.8011 14.024 51.0171 17.256C48.2331 20.488 45.6731 23.752 43.3371 27.048C41.0011 30.312 39.8331 32.584 39.8331 33.864C39.8331 36.04 39.9931 37.704 40.3131 38.856L40.4571 39.336C40.4571 39.56 40.1851 39.672 39.6411 39.672C39.0971 39.672 38.6651 39.624 38.3451 39.528C38.0571 39.464 37.7051 39.304 37.2891 39.048C36.5211 38.536 35.9771 37.176 35.6571 34.968C35.6571 33.912 35.7531 32.936 35.9451 32.04C36.1371 31.112 36.5851 30.008 37.2891 28.728C38.0251 27.448 38.7291 26.296 39.4011 25.272C40.1051 24.248 41.3211 22.696 43.0491 20.616C45.3211 17.896 47.8651 14.968 50.6811 11.832C53.4971 8.66396 55.0331 6.93596 55.2891 6.64796C55.5771 6.32796 55.7211 6.13596 55.7211 6.07196C55.7211 6.00796 54.8091 6.79196 52.9851 8.42396C51.1931 10.024 48.0731 12.904 43.6251 17.064C39.2091 21.224 36.4731 23.928 35.4171 25.176C31.2251 29.976 28.6491 33.096 27.6891 34.536C27.5291 34.952 27.2411 35.16 26.8251 35.16C26.4411 35.16 26.0891 34.888 25.7691 34.344C25.2251 33.416 24.9531 32.248 24.9531 30.84C25.5931 28.504 26.8411 25.56 28.6971 22.008C30.5531 18.424 32.6171 14.904 34.8891 11.448L37.1451 8.51996C37.3691 8.16796 37.4811 7.94396 37.4811 7.84796L37.4331 7.79996C37.4011 7.79996 36.1691 9.11196 33.7371 11.736C31.3051 14.36 29.8651 15.928 29.4171 16.44L19.1451 27.672C15.0811 32.12 12.1531 34.808 10.3611 35.736C7.25711 36.76 5.38511 37.336 4.74511 37.464C4.39311 37.464 4.21711 37.4 4.21711 37.272C4.21711 37.144 4.37711 36.936 4.69711 36.648C9.36911 31.88 12.2971 28.92 13.4811 27.768C13.7371 27.608 15.8331 25.608 19.7691 21.768C23.7051 17.896 27.9131 13.896 32.3931 9.76796C36.9051 5.63996 40.1051 3.06396 41.9931 2.03996C43.2411 1.65596 44.1691 1.46396 44.7771 1.46396C45.4171 1.46396 45.7371 1.63996 45.7371 1.99196C45.7371 2.21596 45.5931 2.47196 45.3051 2.75996C40.4731 9.67196 37.6411 14.04 36.8091 15.864L33.8811 21.384C33.7851 21.608 33.7371 21.768 33.7371 21.864C33.7371 22.056 33.7691 22.12 33.8331 22.056C36.3611 20.008 39.6731 17.128 43.7691 13.416C47.8971 9.70396 51.0491 7.01596 53.2251 5.35196C55.4011 3.65596 57.0491 2.80796 58.1691 2.80796ZM63.4007 10.2C63.7207 10.2 63.9287 10.264 64.0247 10.392C64.4727 10.936 64.6967 11.384 64.6967 11.736C64.6967 12.056 64.6007 12.344 64.4087 12.6C64.2167 12.824 63.9767 13.096 63.6887 13.416C63.4327 13.704 62.8887 14.12 62.0567 14.664C61.2567 15.176 60.4727 15.432 59.7047 15.432C59.1287 15.336 58.8407 14.984 58.8407 14.376C58.8407 13.416 59.4167 12.488 60.5687 11.592C61.7207 10.664 62.6647 10.2 63.4007 10.2ZM51.8807 29.112C51.6247 29.56 51.4967 29.96 51.4967 30.312C51.4967 30.664 51.6887 30.84 52.0727 30.84C52.2967 30.84 52.6807 30.744 53.2247 30.552C59.2087 27.416 65.0647 23.72 70.7927 19.464C71.0807 19.688 71.2247 19.96 71.2247 20.28C71.2247 20.6 71.0647 20.904 70.7447 21.192C70.4247 21.48 69.9607 21.896 69.3527 22.44C68.7767 22.984 67.6567 23.96 65.9927 25.368C64.3287 26.776 62.7767 28.056 61.3367 29.208C57.5607 32.248 54.7767 34.04 52.9847 34.584C52.4087 34.744 51.7847 34.824 51.1127 34.824C48.6487 34.824 47.4167 33.512 47.4167 30.888C47.4167 29.864 47.9767 28.408 49.0967 26.52C50.2167 24.6 51.3687 22.92 52.5527 21.48C53.7367 20.008 54.5207 19.192 54.9047 19.032C55.4807 18.68 56.1047 18.504 56.7767 18.504C57.4487 18.504 58.0887 18.632 58.6967 18.888C58.8887 18.984 58.9847 19.112 58.9847 19.272C58.9847 19.432 58.8247 19.672 58.5047 19.992C58.2167 20.312 57.7527 20.808 57.1127 21.48C56.5047 22.152 55.5767 23.32 54.3287 24.984C53.1127 26.616 52.2967 27.992 51.8807 29.112ZM81.1034 19.128C81.0714 20.28 80.3514 21.416 78.9434 22.536C77.5674 23.656 75.8874 24.216 73.9034 24.216C73.0714 24.216 72.6554 23.976 72.6554 23.496C72.6554 23.304 72.7994 23.16 73.0874 23.064C75.0074 21.944 76.2234 21.032 76.7354 20.328C76.7994 20.2 76.8314 20.056 76.8314 19.896C76.8314 19.736 76.7514 19.656 76.5914 19.656C73.8714 20.04 71.2794 21.528 68.8154 24.12C66.3514 26.712 65.1194 28.728 65.1194 30.168C65.1194 30.84 65.3754 31.176 65.8874 31.176C68.2554 31.176 70.7514 30.488 73.3754 29.112C75.9994 27.736 79.9034 25.208 85.0874 21.528C85.4394 21.272 85.9674 20.888 86.6714 20.376C87.4074 19.864 87.8394 19.56 87.9674 19.464C88.2554 19.688 88.3994 19.96 88.3994 20.28C88.3994 20.6 88.2554 20.888 87.9674 21.144C86.3674 22.744 84.2874 24.536 81.7274 26.52C79.1994 28.504 76.2874 30.392 72.9914 32.184C69.6954 33.944 67.0074 34.824 64.9274 34.824C62.4634 34.824 61.2314 33.512 61.2314 30.888C61.2314 29.064 61.8394 27.288 63.0554 25.56C64.2714 23.8 65.7594 22.328 67.5194 21.144C69.2794 19.96 71.1194 19.016 73.0394 18.312C74.9594 17.576 76.4954 17.208 77.6474 17.208C78.8314 17.208 79.6794 17.368 80.1914 17.688C80.7034 18.008 80.9754 18.328 81.0074 18.648L81.1034 19.128ZM90.9366 29.736C90.9366 29.896 91.0006 29.976 91.1286 29.976C91.2566 29.976 91.5126 29.88 91.8966 29.688C96.6646 27.128 101.913 23.72 107.641 19.464C107.929 19.688 108.073 19.96 108.073 20.28C108.073 20.6 107.913 20.904 107.593 21.192C107.273 21.48 106.809 21.896 106.201 22.44C105.625 22.984 104.505 23.96 102.841 25.368C101.177 26.776 99.6246 28.056 98.1846 29.208C94.4086 32.248 91.6246 34.04 89.8326 34.584C89.2566 34.744 88.6326 34.824 87.9606 34.824C86.8726 34.824 86.3286 33.976 86.3286 32.28C86.3286 31.704 86.6806 30.76 87.3846 29.448C88.0886 28.104 88.4406 27.128 88.4406 26.52C88.4406 26.456 88.3926 26.424 88.2966 26.424C88.2006 26.424 87.9606 26.568 87.5766 26.856C83.1286 30.312 80.4246 32.712 79.4646 34.056C79.2726 34.344 79.0166 34.488 78.6966 34.488C77.9926 34.488 77.5446 34.152 77.3526 33.48C77.3526 32.52 78.6966 30.088 81.3846 26.184C84.1046 22.28 87.2886 18.184 90.9366 13.896C94.5846 9.57596 97.5606 6.53596 99.8646 4.77596C100.537 4.13596 102.105 3.81596 104.569 3.81596C104.953 3.91196 105.145 4.07196 105.145 4.29596C105.145 4.51996 105.033 4.74396 104.809 4.96796C95.5926 13.864 89.7366 20.024 87.2406 23.448C87.1126 23.576 86.9366 23.816 86.7126 24.168C86.5206 24.488 86.4246 24.696 86.4246 24.792L86.4726 24.84C86.6006 24.84 87.6086 24.136 89.4966 22.728C91.3846 21.288 92.7926 20.264 93.7206 19.656C94.0086 19.368 94.6166 19.224 95.5446 19.224C96.3446 19.32 96.7446 19.576 96.7446 19.992C96.7446 20.12 96.7126 20.232 96.6486 20.328C94.2806 23.688 92.8566 25.832 92.3766 26.76C91.4166 28.264 90.9366 29.256 90.9366 29.736ZM107.222 31.944L107.606 28.872C107.606 28.776 107.574 28.728 107.51 28.728C107.478 28.728 107.398 28.792 107.27 28.92C106.854 29.368 106.326 29.928 105.686 30.6C105.046 31.24 103.942 32.12 102.374 33.24C100.838 34.328 99.5897 34.872 98.6297 34.872C98.4697 34.84 98.2777 34.776 98.0537 34.68C97.7977 34.616 97.4777 34.36 97.0937 33.912C96.7097 33.464 96.5177 32.824 96.5177 31.992C96.5177 31.16 97.1577 29.896 98.4377 28.2C99.6857 26.472 101.19 24.792 102.95 23.16C104.71 21.496 106.662 20.056 108.806 18.84C110.982 17.624 112.87 17.016 114.47 17.016C115.078 17.048 115.558 17.48 115.91 18.312C116.23 17.992 116.518 17.832 116.774 17.832C117.03 17.832 117.334 18.024 117.686 18.408C117.878 18.44 118.07 18.552 118.262 18.744C118.454 18.904 118.55 19.144 118.55 19.464C118.55 19.784 118.326 20.136 117.878 20.52C117.206 21.352 116.422 22.296 115.526 23.352C114.63 24.408 113.99 25.176 113.606 25.656C113.222 26.104 112.822 26.616 112.406 27.192C111.702 28.184 111.318 28.984 111.254 29.592C114.518 28.024 119.654 24.648 126.662 19.464C126.95 19.688 127.094 19.96 127.094 20.28C127.094 20.6 126.966 20.872 126.71 21.096C126.454 21.32 126.134 21.592 125.75 21.912C125.398 22.232 124.678 22.856 123.59 23.784C122.502 24.712 121.446 25.608 120.422 26.472C119.43 27.304 118.278 28.248 116.966 29.304C115.686 30.328 114.534 31.208 113.51 31.944C111.046 33.704 109.51 34.584 108.902 34.584C108.294 34.584 107.862 34.392 107.606 34.008C107.35 33.624 107.222 32.936 107.222 31.944ZM102.326 29.928C102.71 29.928 103.878 29.144 105.83 27.576C107.814 26.008 109.686 24.44 111.446 22.872L114.134 20.52C114.262 20.392 114.326 20.312 114.326 20.28C114.326 20.216 114.278 20.184 114.182 20.184C112.966 20.184 111.382 20.888 109.43 22.296C107.478 23.672 105.782 25.144 104.342 26.712C102.934 28.248 102.23 29.288 102.23 29.832C102.23 29.896 102.262 29.928 102.326 29.928ZM132.261 19.464C131.429 19.464 130.021 20.328 128.037 22.056C126.053 23.752 125.061 24.792 125.061 25.176C125.061 25.24 125.109 25.272 125.205 25.272C125.909 25.272 127.301 24.488 129.381 22.92C131.493 21.352 132.549 20.28 132.549 19.704C132.549 19.544 132.453 19.464 132.261 19.464ZM122.037 34.824C119.573 34.824 118.341 33.32 118.341 30.312C118.341 28.424 119.157 26.424 120.789 24.312C122.453 22.168 124.405 20.424 126.645 19.08C128.885 17.704 130.869 17.016 132.597 17.016C133.365 17.016 134.069 17.32 134.709 17.928C135.381 18.536 135.717 19.128 135.717 19.704C135.717 20.76 134.965 21.96 133.461 23.304C131.957 24.616 130.373 25.688 128.709 26.52C127.077 27.32 125.989 27.72 125.445 27.72C124.933 27.72 124.549 27.48 124.293 27C124.165 26.904 123.989 26.856 123.765 26.856C123.541 26.856 123.173 27.288 122.661 28.152C122.149 28.984 121.893 29.672 121.893 30.216C121.893 30.728 122.085 31.048 122.469 31.176C124.901 31.176 127.541 30.472 130.389 29.064C133.237 27.624 137.173 25.112 142.197 21.528C142.549 21.272 143.077 20.888 143.781 20.376C144.517 19.864 144.949 19.56 145.077 19.464C145.365 19.688 145.509 19.96 145.509 20.28C145.509 20.6 145.365 20.888 145.077 21.144C143.477 22.744 141.397 24.536 138.837 26.52C136.309 28.504 133.397 30.392 130.101 32.184C126.805 33.944 124.117 34.824 122.037 34.824ZM141.297 30.792C142.353 30.792 144.433 29.848 147.537 27.96C150.673 26.072 153.521 24.184 156.081 22.296L159.969 19.464C160.257 19.688 160.401 19.96 160.401 20.28C160.401 20.6 160.241 20.904 159.921 21.192C159.601 21.48 159.137 21.896 158.529 22.44C157.953 22.984 156.833 23.96 155.169 25.368C153.505 26.776 151.953 28.056 150.513 29.208C146.737 32.248 143.953 34.04 142.161 34.584C141.585 34.744 140.993 34.824 140.385 34.824C139.777 34.824 139.297 34.776 138.945 34.68C138.593 34.584 138.209 34.376 137.793 34.056C136.961 33.352 136.545 31.784 136.545 29.352C136.545 28.68 136.833 27.656 137.409 26.28C137.985 24.904 138.929 23.24 140.241 21.288C141.585 19.336 143.137 17.384 144.897 15.432C146.689 13.48 148.945 11.528 151.665 9.57596C154.417 7.62396 157.345 6.03996 160.449 4.82396C160.929 4.66396 161.361 4.58396 161.745 4.58396C162.129 4.58396 162.481 4.75996 162.801 5.11196C163.121 5.43196 163.345 5.76796 163.473 6.11996L163.713 6.59996C163.713 7.33596 162.577 8.95196 160.305 11.448C157.969 14.04 155.265 16.52 152.193 18.888C149.153 21.224 146.321 23.224 143.697 24.888C141.553 26.296 140.481 27.768 140.481 29.304C140.481 30.296 140.753 30.792 141.297 30.792ZM145.617 20.856C146.417 20.856 148.833 18.888 152.865 14.952C156.929 11.016 158.961 8.82396 158.961 8.37596L158.913 8.27996L158.097 8.66396C156.433 9.75196 154.209 11.608 151.425 14.232C148.673 16.856 146.769 18.904 145.713 20.376C145.585 20.536 145.521 20.664 145.521 20.76C145.521 20.824 145.553 20.856 145.617 20.856ZM180.566 16.728L185.414 16.2H185.51C186.342 16.2 187.03 15.928 187.574 15.384C195.67 7.06396 201.014 2.13596 203.606 0.599958C203.862 0.407959 204.102 0.311959 204.326 0.311959C204.55 0.311959 204.726 0.375959 204.854 0.50396C205.558 1.01596 205.91 1.35196 205.91 1.51196C205.91 1.63996 205.862 1.75196 205.766 1.84796C197.414 10.04 193.238 14.456 193.238 15.096C193.238 15.256 193.366 15.336 193.622 15.336C195.542 15.368 196.598 15.48 196.79 15.672C196.982 15.864 197.27 15.992 197.654 16.056C198.166 16.056 198.95 16.248 200.006 16.632C201.062 16.984 201.59 17.464 201.59 18.072C201.59 18.232 201.51 18.344 201.35 18.408C201.222 18.44 200.598 18.536 199.478 18.696C198.358 18.856 196.918 19.048 195.158 19.272C193.398 19.496 191.99 19.672 190.934 19.8C189.91 19.928 189.19 20.04 188.774 20.136C188.358 20.2 188.038 20.424 187.814 20.808C183.142 26.888 179.91 31.352 178.118 34.2C178.054 34.552 177.862 34.728 177.542 34.728C177.222 34.728 176.886 34.424 176.534 33.816C176.214 33.208 176.054 32.536 176.054 31.8C176.054 29.944 177.958 26.6 181.766 21.768C181.99 21.576 182.102 21.416 182.102 21.288C182.102 21.224 182.038 21.192 181.91 21.192H181.67L175.43 22.248C174.982 22.248 174.614 22.44 174.326 22.824C170.07 28.648 167.638 32.104 167.03 33.192C166.934 33.576 166.71 33.768 166.358 33.768C166.038 33.768 165.638 33.528 165.158 33.048C164.678 32.536 164.438 31.96 164.438 31.32C164.438 30.68 164.854 29.512 165.686 27.816C166.55 26.088 167.446 24.664 168.374 23.544C168.534 23.32 168.614 23.144 168.614 23.016C168.614 22.888 168.502 22.824 168.278 22.824L166.022 22.728C165.478 22.696 164.694 22.216 163.67 21.288C162.678 20.328 162.182 19.48 162.182 18.744C162.182 18.456 162.342 18.312 162.662 18.312C164.966 18.568 166.518 18.696 167.318 18.696C168.15 18.696 170.038 18.44 172.982 17.928C173.27 17.832 173.654 17.512 174.134 16.968C183.798 6.91996 189.222 1.89596 190.406 1.89596C190.598 1.89596 190.838 2.05596 191.126 2.37596C191.446 2.69596 191.606 2.95196 191.606 3.14396C191.606 3.30396 191.542 3.44796 191.414 3.57596C184.854 10.744 181.318 14.632 180.806 15.24C180.294 15.816 180.038 16.216 180.038 16.44C180.038 16.632 180.214 16.728 180.566 16.728ZM200.362 31.944L200.746 28.872C200.746 28.776 200.714 28.728 200.65 28.728C200.618 28.728 200.538 28.792 200.41 28.92C199.994 29.368 199.466 29.928 198.826 30.6C198.186 31.24 197.082 32.12 195.514 33.24C193.978 34.328 192.73 34.872 191.77 34.872C191.61 34.84 191.418 34.776 191.194 34.68C190.938 34.616 190.618 34.36 190.234 33.912C189.85 33.464 189.658 32.824 189.658 31.992C189.658 31.16 190.298 29.896 191.578 28.2C192.826 26.472 194.33 24.792 196.09 23.16C197.85 21.496 199.802 20.056 201.946 18.84C204.122 17.624 206.01 17.016 207.61 17.016C208.218 17.048 208.698 17.48 209.05 18.312C209.37 17.992 209.658 17.832 209.914 17.832C210.17 17.832 210.474 18.024 210.826 18.408C211.018 18.44 211.21 18.552 211.402 18.744C211.594 18.904 211.69 19.144 211.69 19.464C211.69 19.784 211.466 20.136 211.018 20.52C210.346 21.352 209.562 22.296 208.666 23.352C207.77 24.408 207.13 25.176 206.746 25.656C206.362 26.104 205.962 26.616 205.546 27.192C204.842 28.184 204.458 28.984 204.394 29.592C207.658 28.024 212.794 24.648 219.802 19.464C220.09 19.688 220.234 19.96 220.234 20.28C220.234 20.6 220.106 20.872 219.85 21.096C219.594 21.32 219.274 21.592 218.89 21.912C218.538 22.232 217.818 22.856 216.73 23.784C215.642 24.712 214.586 25.608 213.562 26.472C212.57 27.304 211.418 28.248 210.106 29.304C208.826 30.328 207.674 31.208 206.65 31.944C204.186 33.704 202.65 34.584 202.042 34.584C201.434 34.584 201.002 34.392 200.746 34.008C200.49 33.624 200.362 32.936 200.362 31.944ZM195.466 29.928C195.85 29.928 197.018 29.144 198.97 27.576C200.954 26.008 202.826 24.44 204.586 22.872L207.274 20.52C207.402 20.392 207.466 20.312 207.466 20.28C207.466 20.216 207.418 20.184 207.322 20.184C206.106 20.184 204.522 20.888 202.57 22.296C200.618 23.672 198.922 25.144 197.482 26.712C196.074 28.248 195.37 29.288 195.37 29.832C195.37 29.896 195.402 29.928 195.466 29.928ZM216.953 30.792C218.009 30.792 220.089 29.848 223.193 27.96C226.329 26.072 229.177 24.184 231.737 22.296L235.625 19.464C235.913 19.688 236.057 19.96 236.057 20.28C236.057 20.6 235.897 20.904 235.577 21.192C235.257 21.48 234.793 21.896 234.185 22.44C233.609 22.984 232.489 23.96 230.825 25.368C229.161 26.776 227.609 28.056 226.169 29.208C222.393 32.248 219.609 34.04 217.817 34.584C217.241 34.744 216.649 34.824 216.041 34.824C215.433 34.824 214.953 34.776 214.601 34.68C214.249 34.584 213.865 34.376 213.449 34.056C212.617 33.352 212.201 31.784 212.201 29.352C212.201 28.68 212.489 27.656 213.065 26.28C213.641 24.904 214.585 23.24 215.897 21.288C217.241 19.336 218.793 17.384 220.553 15.432C222.345 13.48 224.601 11.528 227.321 9.57596C230.073 7.62396 233.001 6.03996 236.105 4.82396C236.585 4.66396 237.017 4.58396 237.401 4.58396C237.785 4.58396 238.137 4.75996 238.457 5.11196C238.777 5.43196 239.001 5.76796 239.129 6.11996L239.369 6.59996C239.369 7.33596 238.233 8.95196 235.961 11.448C233.625 14.04 230.921 16.52 227.849 18.888C224.809 21.224 221.977 23.224 219.353 24.888C217.209 26.296 216.137 27.768 216.137 29.304C216.137 30.296 216.409 30.792 216.953 30.792ZM221.273 20.856C222.073 20.856 224.489 18.888 228.521 14.952C232.585 11.016 234.617 8.82396 234.617 8.37596L234.569 8.27996L233.753 8.66396C232.089 9.75196 229.865 11.608 227.081 14.232C224.329 16.856 222.425 18.904 221.369 20.376C221.241 20.536 221.177 20.664 221.177 20.76C221.177 20.824 221.209 20.856 221.273 20.856ZM232.75 30.792C233.806 30.792 235.886 29.848 238.99 27.96C242.126 26.072 244.974 24.184 247.534 22.296L251.422 19.464C251.71 19.688 251.854 19.96 251.854 20.28C251.854 20.6 251.694 20.904 251.374 21.192C251.054 21.48 250.59 21.896 249.982 22.44C249.406 22.984 248.286 23.96 246.622 25.368C244.958 26.776 243.406 28.056 241.966 29.208C238.19 32.248 235.406 34.04 233.614 34.584C233.038 34.744 232.446 34.824 231.838 34.824C231.23 34.824 230.75 34.776 230.398 34.68C230.046 34.584 229.662 34.376 229.246 34.056C228.414 33.352 227.998 31.784 227.998 29.352C227.998 28.68 228.286 27.656 228.862 26.28C229.438 24.904 230.382 23.24 231.694 21.288C233.038 19.336 234.59 17.384 236.35 15.432C238.142 13.48 240.398 11.528 243.118 9.57596C245.87 7.62396 248.798 6.03996 251.902 4.82396C252.382 4.66396 252.814 4.58396 253.198 4.58396C253.582 4.58396 253.934 4.75996 254.254 5.11196C254.574 5.43196 254.798 5.76796 254.926 6.11996L255.166 6.59996C255.166 7.33596 254.03 8.95196 251.758 11.448C249.422 14.04 246.718 16.52 243.646 18.888C240.606 21.224 237.774 23.224 235.15 24.888C233.006 26.296 231.934 27.768 231.934 29.304C231.934 30.296 232.206 30.792 232.75 30.792ZM237.07 20.856C237.87 20.856 240.286 18.888 244.318 14.952C248.382 11.016 250.414 8.82396 250.414 8.37596L250.366 8.27996L249.55 8.66396C247.886 9.75196 245.662 11.608 242.878 14.232C240.126 16.856 238.222 18.904 237.166 20.376C237.038 20.536 236.974 20.664 236.974 20.76C236.974 20.824 237.006 20.856 237.07 20.856Z" fill="white"/>
</g>
<defs>
<filter id="filter0_d" x="0.216797" y="0.312012" width="258.949" height="47.36" filterUnits="userSpaceOnUse" color-interpolation-filters="sRGB">
<feFlood flood-opacity="0" result="BackgroundImageFix"/>
<feColorMatrix in="SourceAlpha" type="matrix" values="0 0 0 0 0 0 0 0 0 0 0 0 0 0 0 0 0 0 127 0"/>
<feOffset dy="4"/>
<feGaussianBlur stdDeviation="2"/>
<feColorMatrix type="matrix" values="0 0 0 0 0 0 0 0 0 0 0 0 0 0 0 0 0 0 0.25 0"/>
<feBlend mode="normal" in2="BackgroundImageFix" result="effect1_dropShadow"/>
<feBlend mode="normal" in="SourceGraphic" in2="effect1_dropShadow" result="shape"/>
</filter>
</defs>
</svg>
